#!OML:ASF E:\acrobat2\Project_11_07_03\Capture day 1\Session 1\Acrobat.ASF
:FULLY-SPECIFIED
:DEGREES
97
root 3.06499 16.9463 -15.8227 3.83444 -7.3061 2.09648
lowerback -6.354 1.29226 2.70271
upperback 0.811087 1.58663 -1.71127
thorax 4.53153 0.877886 -3.13374
lowerneck 0.96951 -1.65289 -0.605836
upperneck 3.31673 -2.28411 2.92212
head 0.898832 -1.12194 0.985995
rclavicle 3.06466e-014 5.60324e-015
rhumerus -37.3217 -9.93435 -76.6582
rradius 24.8699
rwrist 11.019
rhand 2.5158 -25.4513
rfingers 7.12502
rthumb 27.9978 -53.383
lclavicle 3.06466e-014 5.60324e-015
lhumerus -30.9569 -6.35723 83.7902
lradius 21.7997
lwrist 8.00486
lhand -8.1491 -11.9631
lfingers 7.12502
lthumb 17.7654 17.2454
rfemur -10.2917 6.93494 22.922
rtibia 38.5921
rfoot -47.0175 -20.0117
rtoes 4.03819
lfemur -26.8771 0.373175 -15.548
ltibia 42.5734
lfoot -18.7825 -9.80696
ltoes 34.7447
98
root 3.0641 16.9461 -15.8184 3.83157 -7.32347 2.1436
lowerback -6.35449 1.29465 2.66667
upperback 0.773795 1.59291 -1.71877
thorax 4.49255 0.879049 -3.12083
lowerneck 1.07871 -1.63836 -0.62992
upperneck 3.25556 -2.26354 2.94169
head 0.861767 -1.11317 0.997125
rclavicle -8.658e-015 1.32937e-015
rhumerus -37.387 -9.93474 -76.616
rradius 24.8647
rwrist 11.0518
rhand 2.24361 -24.9961
rfingers 7.12502
rthumb 27.7375 -52.97
lclavicle -8.658e-015 1.32937e-015
lhumerus -31.0853 -6.41941 83.8393
lradius 21.9578
lwrist 8.04313
lhand -8.26233 -12.0384
lfingers 7.12502
lthumb 17.6564 17.18
rfemur -10.2847 6.92754 22.8673
rtibia 38.602
rfoot -47.0179 -19.9926
rtoes 3.98885
lfemur -26.8596 0.382473 -15.6025
ltibia 42.5629
lfoot -18.8029 -9.77696
ltoes 34.5772
99
root 3.06344 16.9458 -15.8139 3.82309 -7.34643 2.17041
lowerback -6.35102 1.29123 2.64694
upperback 0.740563 1.58964 -1.71274
thorax 4.45492 0.875798 -3.10406
lowerneck 1.19883 -1.61024 -0.658851
upperneck 3.1888 -2.22438 2.94753
head 0.820676 -1.09543 1.00495
rclavicle -1.17079e-014 1.82633e-015
rhumerus -37.445 -9.90042 -76.5768
rradius 24.8566
rwrist 11.0265
rhand 2.13728 -24.7689
rfingers 7.12502
rthumb 27.6359 -52.7591
lclavicle -1.17079e-014 1.82633e-015
lhumerus -31.2091 -6.41752 83.8718
lradius 22.1049
lwrist 8.03944
lhand -8.31749 -12.0621
lfingers 7.12502
lthumb 17.6033 17.161
rfemur -10.2673 6.89959 22.8309
rtibia 38.6052
rfoot -46.9928 -19.9757
rtoes 3.87178
lfemur -26.836 0.383487 -15.6343
ltibia 42.56
lfoot -18.8418 -9.74251
ltoes 34.3976
100
root 3.06302 16.9454 -15.8098 3.8113 -7.36926 2.18157
lowerback -6.34359 1.28266 2.63935
upperback 0.715377 1.57818 -1.69654
thorax 4.42288 0.868861 -3.08441
lowerneck 1.30898 -1.58443 -0.68783
upperneck 3.11966 -2.18786 2.93326
head 0.780317 -1.07907 1.00641
rclavicle 1.30563e-014 6.70277e-015
rhumerus -37.4789 -9.83194 -76.5469
rradius 24.8498
rwrist 10.9493
rhand 2.15722 -24.6955
rfingers 7.12502
rthumb 27.6549 -52.6827
lclavicle 1.30563e-014 6.70277e-015
lhumerus -31.3005 -6.36491 83.8875
lradius 22.2231
lwrist 8.00264
lhand -8.29879 -12.0223
lfingers 7.12502
lthumb 17.6213 17.1992
rfemur -10.2424 6.85327 22.809
rtibia 38.6025
rfoot -46.9533 -19.9535
rtoes 3.71577
lfemur -26.8096 0.372224 -15.6482
ltibia 42.5632
lfoot -18.8938 -9.70787
ltoes 34.2424
101
root 3.06271 16.9451 -15.8065 3.80021 -7.38488 2.18696
lowerback -6.3336 1.2718 2.63729
upperback 0.698553 1.56325 -1.67869
thorax 4.39798 0.860545 -3.0665
lowerneck 1.39334 -1.56434 -0.700888
upperneck 3.06092 -2.15864 2.89322
head 0.747088 -1.06605 0.996887
rclavicle 1.96444e-014 -1.00635e-014
rhumerus -37.4806 -9.75623 -76.5263
rradius 24.8365
rwrist 10.8404
rhand 2.21987 -24.6669
rfingers 7.12502
rthumb 27.7148 -52.6445
lclavicle 1.96444e-014 -1.00635e-014
lhumerus -31.3359 -6.28079 83.8839
lradius 22.2949
lwrist 7.93228
lhand -8.21203 -11.9704
lfingers 7.12502
lthumb 17.7048 17.2435
rfemur -10.2164 6.79185 22.7923
rtibia 38.5957
rfoot -46.9118 -19.9193
rtoes 3.56998
lfemur -26.7873 0.356422 -15.6552
ltibia 42.5694
lfoot -18.9466 -9.67362
ltoes 34.0917
102
root 3.06237 16.9451 -15.8043 3.79317 -7.38486 2.19353
lowerback -6.32225 1.25896 2.63493
upperback 0.692058 1.54592 -1.6649
thorax 4.38303 0.851392 -3.05283
lowerneck 1.42858 -1.55553 -0.688606
upperneck 3.02792 -2.14448 2.82898
head 0.729656 -1.05982 0.975111
rclavicle 4.62174e-015 -7.67806e-015
rhumerus -37.4457 -9.69666 -76.5142
rradius 24.8091
rwrist 10.72
rhand 2.23936 -24.5978
rfingers 7.12502
rthumb 27.7335 -52.5723
lclavicle 4.62174e-015 -7.67806e-015
lhumerus -31.3027 -6.18904 83.8658
lradius 22.318
lwrist 7.83924
lhand -8.10193 -11.9511
lfingers 7.12502
lthumb 17.8108 17.2532
rfemur -10.1954 6.72916 22.7776
rtibia 38.5872
rfoot -46.8832 -19.8807
rtoes 3.48481
lfemur -26.7759 0.346862 -15.6629
ltibia 42.5759
lfoot -18.9855 -9.64274
ltoes 33.9179
103
root 3.06184 16.9452 -15.8029 3.78884 -7.37048 2.20786
lowerback -6.3126 1.24607 2.62695
upperback 0.697368 1.52933 -1.65951
thorax 4.38149 0.842945 -3.04455
lowerneck 1.41176 -1.56094 -0.65797
upperneck 3.01698 -2.14941 2.75036
head 0.727638 -1.06246 0.945328
rclavicle 4.91891e-014 6.26172e-015
rhumerus -37.385 -9.65972 -76.5123
rradius 24.7784
rwrist 10.6067
rhand 2.48037 -24.8475
rfingers 7.12502
rthumb 27.9639 -52.7848
lclavicle 4.91891e-014 6.26172e-015
lhumerus -31.2154 -6.12638 83.8457
lradius 22.3165
lwrist 7.74569
lhand -8.00609 -11.9642
lfingers 7.12502
lthumb 17.903 17.2318
rfemur -10.1798 6.68418 22.7609
rtibia 38.5791
rfoot -46.8733 -19.8512
rtoes 3.4873
lfemur -26.7728 0.345497 -15.6781
ltibia 42.5807
lfoot -19.0069 -9.62131
ltoes 33.7373
104
root 3.06107 16.9452 -15.8019 3.78423 -7.34832 2.231
lowerback -6.30689 1.23526 2.61433
upperback 0.712329 1.51624 -1.66458
thorax 4.39267 0.836588 -3.04404
lowerneck 1.3548 -1.5759 -0.618648
upperneck 3.02732 -2.16766 2.67548
head 0.739044 -1.07117 0.914927
rclavicle -2.46889e-014 -1.86361e-015
rhumerus -37.3123 -9.65142 -76.52
rradius 24.7485
rwrist 10.5193
rhand 2.97363 -25.4891
rfingers 7.12502
rthumb 28.4354 -53.3486
lclavicle -2.46889e-014 -1.86361e-015
lhumerus -31.1008 -6.10799 83.8281
lradius 22.3157
lwrist 7.6615
lhand -7.94342 -11.9917
lfingers 7.12502
lthumb 17.9633 17.1987
rfemur -10.1669 6.66854 22.7422
rtibia 38.5729
rfoot -46.8821 -19.8344
rtoes 3.57991
lfemur -26.7729 0.354667 -15.7027
ltibia 42.5833
lfoot -19.0088 -9.60752
ltoes 33.5553
105
root 3.0601 16.945 -15.8013 3.77714 -7.32568 2.25718
lowerback -6.30224 1.22867 2.60291
upperback 0.733787 1.50902 -1.67762
thorax 4.41193 0.833493 -3.05185
lowerneck 1.27502 -1.60049 -0.572273
upperneck 3.03956 -2.19906 2.61102
head 0.755104 -1.08615 0.886395
rclavicle -3.70392e-015 -4.5969e-016
rhumerus -37.239 -9.66524 -76.5369
rradius 24.7191
rwrist 10.4468
rhand 3.59867 -26.3894
rfingers 7.12502
rthumb 29.0325 -54.1475
lclavicle -3.70392e-015 -4.5969e-016
lhumerus -30.9808 -6.13171 83.8164
lradius 22.3307
lwrist 7.60116
lhand -7.92972 -12.0093
lfingers 7.12502
lthumb 17.9765 17.1799
rfemur -10.1545 6.68267 22.7261
rtibia 38.5692
rfoot -46.9051 -19.8327
rtoes 3.72331
lfemur -26.7711 0.370113 -15.7307
ltibia 42.5842
lfoot -19.0003 -9.59235
ltoes 33.355
106
root 3.05906 16.9447 -15.8005 3.76676 -7.30791 2.28433
lowerback -6.29799 1.22727 2.59251
upperback 0.757937 1.50887 -1.69504
thorax 4.4349 0.834078 -3.06404
lowerneck 1.18913 -1.62423 -0.530723
upperneck 3.04434 -2.2299 2.57445
head 0.770322 -1.10074 0.867318
rclavicle 2.19129e-015 6.78353e-015
rhumerus -37.1795 -9.69064 -76.5599
rradius 24.7157
rwrist 10.4164
rhand 4.09441 -27.1785
rfingers 7.12502
rthumb 29.5058 -54.8541
lclavicle 2.19129e-015 6.78353e-015
lhumerus -30.8753 -6.18645 83.8127
lradius 22.3724
lwrist 7.57961
lhand -7.94901 -11.9903
lfingers 7.12502
lthumb 17.9579 17.2007
rfemur -10.1412 6.71755 22.7114
rtibia 38.568
rfoot -46.9335 -19.8453
rtoes 3.87456
lfemur -26.7633 0.383493 -15.7595
ltibia 42.5842
lfoot -18.9909 -9.57678
ltoes 33.1686
107
root 3.05803 16.9444 -15.7996 3.75585 -7.2932 2.30824
lowerback -6.29548 1.22876 2.58492
upperback 0.78095 1.51229 -1.71242
thorax 4.45802 0.8365 -3.0774
lowerneck 1.12135 -1.64241 -0.498079
upperneck 3.02464 -2.25358 2.56852
head 0.775417 -1.11193 0.859443
rclavicle 1.03585e-015 -1.22998e-015
rhumerus -37.1395 -9.71947 -76.5841
rradius 24.7313
rwrist 10.411
rhand 4.52779 -27.9554
rfingers 7.12502
rthumb 29.9195 -55.5572
lclavicle 1.03585e-015 -1.22998e-015
lhumerus -30.7928 -6.25422 83.8144
lradius 22.4409
lwrist 7.60127
lhand -7.97749 -11.9134
lfingers 7.12502
lthumb 17.9305 17.28
rfemur -10.1287 6.75599 22.6991
rtibia 38.568
rfoot -46.9595 -19.8703
rtoes 3.9972
lfemur -26.7529 0.392923 -15.7845
ltibia 42.5842
lfoot -18.9744 -9.56737
ltoes 33.0552
108
root 3.05717 16.9443 -15.7985 3.74497 -7.28551 2.31983
lowerback -6.29486 1.23359 2.58838
upperback 0.802112 1.51907 -1.72434
thorax 4.48069 0.840754 -3.09093
lowerneck 1.06867 -1.64129 -0.479794
upperneck 3.00333 -2.25232 2.59504
head 0.777765 -1.11068 0.864265
rclavicle 8.96938e-015 -2.60905e-016
rhumerus -37.1191 -9.73269 -76.6093
rradius 24.7577
rwrist 10.3935
rhand 4.80866 -28.5313
rfingers 7.12502
rthumb 30.1875 -56.0844
lclavicle 8.96938e-015 -2.60905e-016
lhumerus -30.727 -6.32774 83.8234
lradius 22.5194
lwrist 7.66041
lhand -8.01623 -11.7912
lfingers 7.12502
lthumb 17.8932 17.4056
rfemur -10.1151 6.78013 22.695
rtibia 38.5673
rfoot -46.972 -19.905
rtoes 4.0363
lfemur -26.7375 0.391988 -15.7954
ltibia 42.5857
lfoot -18.9596 -9.5668
ltoes 33.0495
109
root 3.05647 16.9443 -15.7972 3.73458 -7.28305 2.31416
lowerback -6.29549 1.23914 2.60371
upperback 0.817511 1.52536 -1.72574
thorax 4.49805 0.844764 -3.10027
lowerneck 1.05448 -1.64492 -0.473993
upperneck 2.94648 -2.25672 2.63015
head 0.763117 -1.11289 0.874167
rclavicle -4.08013e-015 -2.30342e-014
rhumerus -37.1222 -9.71845 -76.6321
rradius 24.7882
rwrist 10.3507
rhand 5.01018 -28.9402
rfingers 7.12502
rthumb 30.3797 -56.458
lclavicle -4.08013e-015 -2.30342e-014
lhumerus -30.6755 -6.3926 83.8389
lradius 22.5885
lwrist 7.7283
lhand -8.06275 -11.6758
lfingers 7.12502
lthumb 17.8485 17.5251
rfemur -10.0956 6.78401 22.705
rtibia 38.564
rfoot -46.9768 -19.933
rtoes 3.99087
lfemur -26.7173 0.380758 -15.7866
ltibia 42.5906
lfoot -18.9523 -9.57712
ltoes 33.1273
